PathFileType	3	(X/Y/Z)	D:\minhoCalibration\240510\subject2_KPNP\preferred\preferred04.trc
DataRate	CameraRate	NumFrames	NumMarkers	Units	OrigDataRate	OrigDataStartFrame	OrigNumFrames
200.0	200.0	18	10	mm	200.0	184	187	
Frame#	Time	Left_Ankle_Outer1			Left_Ankle_Inner1			Left_Knee_Outer1			Left_Knee_Inner1			Left_Wrist1			Right_Wrist1			Right_Knee_Inner1			Right_Knee_Outer1			Right_Ankle_Inner1			Right_Ankle_Outer1			
		X1	Y1	Z1	X2	Y2	Z2	X3	Y3	Z3	X4	Y4	Z4	X5	Y5	Z5	X6	Y6	Z6	X7	Y7	Z7	X8	Y8	Z8	X9	Y9	Z9	X10	Y10	Z10	
184	0.91	-524.38184	87.560982	-792.32062	-546.16992	91.839111	-737.83099	-340.85403	506.65958	-745.01392	-421.42981	489.63217	-677.83972	-461.1557	920.08795	-865.03497	-782.71655	964.08533	-963.16443	-817.31537	452.74173	-985.07654	-878.78992	498.48834	-1040.1123	-794.20044	102.96752	-1186.4303	-869.3623	130.50026	-1241.1974
185	0.915	-523.2171	87.726715	-792.94641	-545.38055	91.902512	-739.32379	-338.94116	506.91354	-741.07153	-420.50519	489.25104	-675.80554	-457.91824	919.51599	-864.16931	-781.34473	964.33148	-956.38196	-820.02515	452.96808	-977.73553	-881.3866	498.79593	-1032.9348	-794.3924	105.65652	-1184.2646	-869.19086	133.56662	-1239.1176
186	0.92	-521.72931	87.963547	-793.53857	-544.6756	92.168602	-739.73846	-337.06421	507.2869	-737.2052	-418.94751	489.78992	-673.48907	-454.73187	919.22522	-863.08167	-779.4812	964.35767	-950.27637	-822.77295	452.77274	-970.20697	-884.31085	499.61221	-1025.0942	-794.47046	109.02354	-1181.7263	-869.02118	137.89325	-1237.2443
187	0.925	-520.13831	88.151344	-794.00269	-543.54565	92.40715	-740.70917	-335.02032	507.77222	-733.43903	-418.21191	489.43686	-671.81305	-451.06207	919.2901	-862.34253	-777.79272	964.15332	-943.04474	-825.97449	453.2178	-962.00323	-887.70782	501.0386	-1016.5193	-794.68146	112.79906	-1178.6948	-869.28345	141.37953	-1233.4839
188	0.93	-518.82336	88.399025	-794.36273	-542.49396	92.021416	-741.41833	-332.96939	508.37689	-730.24396	-416.81857	489.75836	-669.95563	-447.26306	919.91968	-860.96802	-775.66925	964.29712	-935.21301	-829.82831	454.02399	-953.35999	-891.56171	502.82907	-1007.4539	-795.09106	117.06466	-1175.1708	-869.30286	146.81148	-1230.6625
189	0.935	-517.67462	88.47628	-794.73181	-541.86298	92.703377	-741.51178	-331.00195	508.76468	-727.39801	-414.52045	490.79773	-668.28967	-443.26016	920.8714	-859.66101	-773.03961	964.6925	-928.53503	-834.21484	455.05612	-943.3645	-895.89172	505.01794	-997.15277	-795.55609	121.9411	-1171.0283	-869.61536	152.27219	-1226.5042
190	0.94	-516.92072	88.374313	-795.00543	-541.28119	92.854012	-742.04803	-329.24362	508.71616	-725.18604	-413.39868	490.49658	-666.88159	-439.07672	922.15497	-858.20392	-770.26099	964.91559	-921.45471	-839.37091	456.44516	-932.62244	-900.43988	507.63202	-986.04333	-796.4964	127.5975	-1166.0007	-870.21423	158.14153	-1221.4269
191	0.945	-516.37946	88.093483	-795.38544	-540.86877	92.550484	-742.74072	-327.38864	508.41147	-723.64844	-411.3981	490.55145	-665.68109	-434.67032	923.81348	-856.6405	-767.03009	965.71106	-914.06543	-844.78552	458.45529	-920.87799	-905.24005	510.51813	-974.24518	-797.47681	133.84203	-1160.2303	-871.05945	164.83673	-1215.6423
192	0.95	-516.06567	87.810005	-795.81207	-540.66083	92.150093	-743.4939	-325.32983	507.73413	-722.82196	-409.29239	490.27698	-664.62396	-430.08774	925.72815	-855.45007	-763.70459	966.68793	-907.99323	-850.24261	460.67255	-908.48291	-910.1004	513.94775	-961.5791	-798.88269	140.62796	-1153.7058	-872.69025	171.92963	-1208.9547
193	0.955	-515.93951	87.475769	-796.10712	-540.63226	92.016075	-743.70117	-323.46841	506.69229	-722.40961	-406.99887	489.51535	-664.09442	-425.84082	927.69574	-853.32526	-760.0213	967.90253	-899.57025	-855.60492	463.51285	-895.32294	-914.68396	517.52081	-948.40381	-800.79822	147.75517	-1146.5928	-874.35577	180.15517	-1201.6261
194	0.96	-515.81073	87.216545	-796.3194	-540.72101	92.098175	-743.14166	-321.47314	505.41867	-722.57965	-404.69116	488.36761	-663.67212	-421.17795	929.80591	-851.29187	-755.95465	969.24335	-893.38763	-860.65137	466.73376	-881.58679	-919.01886	521.59076	-934.50848	-803.36017	155.15625	-1138.3311	-876.48132	188.7981	-1193.5642
195	0.965	-515.70068	86.952141	-796.56909	-540.63531	92.007896	-743.35413	-319.52927	503.97305	-723.04077	-402.21542	487.05704	-663.38849	-416.68219	932.01117	-849.50018	-751.82208	970.84253	-885.40045	-865.21777	470.46735	-866.63654	-922.81781	526.00031	-920.15948	-806.31085	162.96043	-1129.6161	-878.84747	197.96526	-1184.7192
196	0.97	-515.47717	86.760941	-796.79199	-540.45404	92.044746	-743.5069	-317.61429	502.52777	-723.46863	-399.67416	485.65863	-663.40784	-411.68939	934.21765	-847.9292	-747.68286	972.54065	-878.42334	-869.48938	474.76767	-851.31122	-925.90588	530.74402	-905.12042	-809.55615	171.13554	-1120.5974	-881.65912	207.6996	-1175.4044
197	0.975	-515.19971	86.538597	-797.10846	-539.71234	91.115211	-745.4801	-315.41003	501.18982	-724.19629	-397.08539	484.37695	-663.55054	-407.63071	936.09399	-847.23932	-743.45129	974.39014	-871.46497	-872.80377	479.45532	-834.92188	-928.33337	536.02637	-889.4306	-812.85803	179.72214	-1111.3156	-884.60156	218.11891	-1165.6112
198	0.98	-514.7464	86.469894	-797.57373	-539.4884	91.567398	-745.04724	-313.37466	500.00195	-724.81152	-394.46399	483.27261	-663.86603	-402.85468	938.66876	-844.75055	-739.17456	976.35858	-864.41205	-875.32568	484.47101	-818.0722	-930.10535	541.49054	-873.35687	-816.03357	188.84586	-1101.7169	-887.65222	228.94226	-1155.3088
199	0.985	-514.3421	86.40451	-798.0246	-539.19336	92.022232	-745.52441	-311.00836	498.83133	-725.49872	-391.62878	482.40112	-664.50012	-398.38806	940.8576	-843.64264	-735.0094	978.47699	-857.3584	-877.16211	489.63394	-801.01141	-931.21088	547.13867	-856.63074	-819.07678	198.52484	-1091.6464	-890.63031	240.09912	-1144.4606
200	0.99	-514.02295	86.344086	-798.37628	-538.70404	92.029427	-746.37775	-308.82245	497.931	-726.26898	-389.06119	481.88031	-665.14685	-393.84784	942.98114	-842.62604	-730.82043	980.95813	-849.59296	-878.00403	495.30685	-783.52795	-931.927	552.99701	-839.33972	-821.70465	208.55551	-1081.3969	-893.45068	251.78915	-1133.2595
201	0.995	-513.75867	86.272537	-798.72156	-539.27454	90.292381	-750.31964	-306.22205	497.18503	-727.53522	-386.42813	481.44101	-666.21515	-389.43695	945.0141	-841.72473	-726.60913	983.26959	-842.68848	-877.89337	500.77744	-765.78351	-932.008	558.88434	-821.59656	-824.0152	219.29794	-1070.6823	-895.98572	264.07455	-1121.8065
